<svg width="60" height="60" viewBox="0 0 60 60" fill="none" xmlns="http://www.w3.org/2000/svg">
<mask id="mask0_170_1226" style="mask-type:luminance" maskUnits="userSpaceOnUse" x="0" y="0" width="60" height="60">
<path d="M0 3.8147e-06H60V60H0V3.8147e-06Z" fill="white"/>
</mask>
<g mask="url(#mask0_170_1226)">
<path fill-rule="evenodd" clip-rule="evenodd" d="M30 48.8628C30.5523 48.8628 31 48.4151 31 47.8628C31 45.7331 30.154 43.6906 28.6484 42.1837L18.427 31.9635C18.427 31.9635 18.427 31.9635 18.427 31.9635C16.6631 30.1996 13.8057 30.1996 12.0417 31.9635C10.2778 33.7275 10.2778 36.5848 12.0417 38.3488L18.0429 44.35C18.4334 44.7405 19.0666 44.7405 19.4571 44.35C19.8476 43.9595 19.8476 43.3263 19.4571 42.9358L13.4559 36.9346C12.473 35.9517 12.473 34.3606 13.4559 33.3777C14.4388 32.3948 16.0299 32.3948 17.0128 33.3777L27.2336 43.5973C28.3647 44.7295 29 46.2636 29 47.8628C29 48.4151 29.4477 48.8628 30 48.8628Z" fill="#B20003"/>
<path fill-rule="evenodd" clip-rule="evenodd" d="M14.8702 57.5831C15.0601 57.8172 15.3454 57.9531 15.6469 57.9531H30C30.5523 57.9531 31 57.5054 31 56.9531V47.8629C31 47.3106 30.5523 46.8629 30 46.8629C29.4477 46.8629 29 47.3106 29 47.8629V55.9531H16.1234L2.99674 39.7689C2.45718 38.8459 2.17188 37.7951 2.17188 36.7242V24.6094C2.17188 23.2199 3.29799 22.0938 4.6875 22.0938C6.07701 22.0938 7.20312 23.2199 7.20312 24.6094V31.6406C7.20312 32.8377 7.67892 33.9861 8.5261 34.8333L12.0417 38.3489C12.4322 38.7394 13.0654 38.7394 13.4559 38.3489C13.8465 37.9584 13.8465 37.3252 13.4559 36.9347L9.94031 33.4191C9.46796 32.9467 9.20312 32.3069 9.20312 31.6406V24.6094C9.20312 22.1153 7.18158 20.0938 4.6875 20.0938C2.19342 20.0938 0.171875 22.1153 0.171875 24.6094V36.7242C0.171875 38.1806 0.5681 39.6088 1.31625 40.8562C1.34047 40.8965 1.36751 40.9352 1.39717 40.9717L14.8702 57.5831Z" fill="#B20003"/>
<path fill-rule="evenodd" clip-rule="evenodd" d="M30 48.8628C30.5523 48.8628 31 48.4151 31 47.8628C31 46.2638 31.6351 44.7298 32.7661 43.5977L42.9871 33.3778C43.9701 32.3948 45.5611 32.3948 46.5441 33.3777C47.527 34.3606 47.527 35.9517 46.5441 36.9346L40.5429 42.9358C40.1524 43.3263 40.1524 43.9595 40.5429 44.35C40.9334 44.7405 41.5666 44.7405 41.9571 44.35L47.9583 38.3488C49.7222 36.5848 49.7222 33.7275 47.9583 31.9635C46.1943 30.1996 43.337 30.1995 41.573 31.9635C41.573 31.9635 41.573 31.9634 41.573 31.9635L31.3519 42.1834C29.8464 43.6903 29 45.7331 29 47.8628C29 48.4151 29.4477 48.8628 30 48.8628Z" fill="#B20003"/>
<path fill-rule="evenodd" clip-rule="evenodd" d="M7.90625 11.25C7.90625 11.8023 8.35397 12.25 8.90625 12.25H12.4219C12.9742 12.25 13.4219 11.8023 13.4219 11.25C13.4219 10.6977 12.9742 10.25 12.4219 10.25H8.90625C8.35397 10.25 7.90625 10.6977 7.90625 11.25Z" fill="#B20003"/>
<path fill-rule="evenodd" clip-rule="evenodd" d="M16.1396 6.15863C16.5244 5.76246 16.5152 5.12936 16.119 4.74457L13.6323 2.32934C13.2361 1.94455 12.603 1.95378 12.2182 2.34996C11.8334 2.74613 11.8426 3.37923 12.2388 3.76402L14.7255 6.17926C15.1217 6.56404 15.7548 6.55481 16.1396 6.15863Z" fill="#B20003"/>
<path fill-rule="evenodd" clip-rule="evenodd" d="M12.2284 20.2315C12.619 20.622 13.2521 20.622 13.6427 20.2315L16.1294 17.7448C16.5199 17.3543 16.5199 16.7211 16.1294 16.3306C15.7388 15.9401 15.1057 15.9401 14.7152 16.3306L12.2284 18.8173C11.8379 19.2078 11.8379 19.841 12.2284 20.2315Z" fill="#B20003"/>
<path fill-rule="evenodd" clip-rule="evenodd" d="M46.5781 11.25C46.5781 11.8023 47.0258 12.25 47.5781 12.25H51.0938C51.646 12.25 52.0938 11.8023 52.0938 11.25C52.0938 10.6977 51.646 10.25 51.0938 10.25H47.5781C47.0258 10.25 46.5781 10.6977 46.5781 11.25Z" fill="#B20003"/>
<path fill-rule="evenodd" clip-rule="evenodd" d="M43.8588 6.15863C44.2436 6.55481 44.8767 6.56404 45.2729 6.17926L47.7596 3.76402C48.1558 3.37923 48.165 2.74613 47.7802 2.34996C47.3954 1.95378 46.7623 1.94455 46.3662 2.32934L43.8795 4.74457C43.4833 5.12936 43.474 5.76246 43.8588 6.15863Z" fill="#B20003"/>
<path fill-rule="evenodd" clip-rule="evenodd" d="M47.77 20.2315C48.1605 19.841 48.1605 19.2078 47.77 18.8173L45.2833 16.3306C44.8928 15.9401 44.2596 15.9401 43.8691 16.3306C43.4785 16.7211 43.4785 17.3543 43.8691 17.7448L46.3558 20.2315C46.7463 20.622 47.3795 20.622 47.77 20.2315Z" fill="#B20003"/>
<path fill-rule="evenodd" clip-rule="evenodd" d="M27.0284 21.6071C27.0284 21.6071 27.0284 21.6071 27.0284 21.6071L30.374 19.1696L33.7052 21.5908C35.2934 22.7451 37.4299 21.1887 36.8178 19.323C36.8178 19.323 36.8178 19.323 36.8178 19.323L35.5346 15.4117L38.8789 12.9869C40.4667 11.8355 39.6524 9.32489 37.691 9.32489H33.5444L32.2717 5.39942C31.6659 3.53095 29.0214 3.53414 28.4202 5.40405C28.4202 5.40405 28.4202 5.40405 28.4202 5.40405L27.1594 9.32489H23.0256C21.062 9.32489 20.2491 11.84 21.841 12.9893L25.1946 15.4105L23.9126 19.3445C23.3046 21.2105 25.4421 22.7628 27.0284 21.6071ZM25.8142 19.9642C25.8142 19.9642 25.8142 19.9641 25.8142 19.9642L27.3222 15.3366C27.4569 14.9233 27.3092 14.4704 26.9568 14.216L23.0117 11.3678C23.0117 11.3678 23.0117 11.3678 23.0117 11.3678C23.0061 11.3637 23.0023 11.3604 23 11.3582C23 11.3547 23.0006 11.3489 23.0031 11.3413C23.0055 11.3336 23.0084 11.3286 23.0104 11.3258C23.0136 11.3253 23.0186 11.3249 23.0256 11.3249H27.8883C28.3227 11.3249 28.7073 11.0445 28.8403 10.631L30.3242 6.01627C30.3263 6.00963 30.3282 6.00503 30.3296 6.00211C30.333 6.00109 30.3386 5.99985 30.3467 5.99984C30.3547 5.99983 30.3603 6.00106 30.3637 6.00207C30.3651 6.00499 30.367 6.00957 30.3692 6.01622L31.8661 10.6333C31.9998 11.0456 32.3839 11.3249 32.8173 11.3249H37.691C37.698 11.3249 37.7029 11.3253 37.7061 11.3258C37.7081 11.3286 37.711 11.3336 37.7135 11.3412C37.716 11.3489 37.7165 11.3546 37.7166 11.3581C37.7143 11.3604 37.7105 11.3636 37.7049 11.3677L33.7701 14.2207C33.4182 14.4759 33.2714 14.9291 33.4069 15.342L34.9175 19.9464C34.9196 19.9531 34.9208 19.9579 34.9213 19.9611C34.9192 19.9639 34.9154 19.9682 34.9089 19.9729C34.9024 19.9777 34.8971 19.98 34.8938 19.9811C34.891 19.9796 34.8867 19.9771 34.8811 19.973C34.8811 19.973 34.8811 19.973 34.8811 19.973L30.9612 17.1239C30.6103 16.8689 30.135 16.8692 29.7844 17.1246L25.8507 19.9906C25.845 19.9947 25.8408 19.9973 25.8379 19.9988C25.8346 19.9977 25.8293 19.9954 25.8228 19.9907C25.8163 19.9859 25.8125 19.9816 25.8104 19.9788C25.811 19.9757 25.8121 19.9708 25.8142 19.9642Z" fill="#B20003"/>
<path d="M53.2031 47.5781C53.2031 48.2254 52.6785 48.75 52.0312 48.75C51.384 48.75 50.8594 48.2254 50.8594 47.5781C50.8594 46.9309 51.384 46.4063 52.0312 46.4063C52.6785 46.4063 53.2031 46.9309 53.2031 47.5781Z" fill="#B20003"/>
<path fill-rule="evenodd" clip-rule="evenodd" d="M29 56.9531C29 57.5054 29.4477 57.9531 30 57.9531H44.3531C44.6546 57.9531 44.9399 57.8172 45.1298 57.5831L49.4429 52.2653C49.7908 51.8364 49.7251 51.2066 49.2961 50.8587C48.8672 50.5108 48.2375 50.5765 47.8896 51.0055L43.8766 55.9531H30C29.4477 55.9531 29 56.4008 29 56.9531Z" fill="#B20003"/>
<path fill-rule="evenodd" clip-rule="evenodd" d="M54.6777 44.2244C55.1066 44.5723 55.7364 44.5066 56.0843 44.0777L58.6037 40.9715C58.6334 40.9349 58.6605 40.8962 58.6847 40.8558C59.4327 39.6085 59.8289 38.1803 59.8289 36.724V24.6091C59.8289 22.115 57.8074 20.0935 55.3133 20.0935C52.8193 20.0935 50.7977 22.115 50.7977 24.6091V31.6404C50.7977 32.3066 50.5328 32.9465 50.0605 33.4188L46.5448 36.9344C46.1543 37.325 46.1543 37.9581 46.5448 38.3487C46.9354 38.7392 47.5685 38.7392 47.9591 38.3487L51.4747 34.833C52.3219 33.9859 52.7977 32.8374 52.7977 31.6404V24.6091C52.7977 23.2196 53.9239 22.0935 55.3133 22.0935C56.7028 22.0935 57.8289 23.2196 57.8289 24.6091V36.724C57.8289 37.7947 57.5436 38.8456 57.0041 39.7687L54.531 42.8178C54.1831 43.2467 54.2488 43.8765 54.6777 44.2244Z" fill="#B20003"/>
</g>
</svg>
