<svg width="60" height="60" viewBox="0 0 60 60" fill="none" xmlns="http://www.w3.org/2000/svg">
<mask id="mask0_170_1261" style="mask-type:luminance" maskUnits="userSpaceOnUse" x="0" y="0" width="60" height="60">
<path d="M0 3.8147e-06H60V60H0V3.8147e-06Z" fill="white"/>
</mask>
<g mask="url(#mask0_170_1261)">
<path fill-rule="evenodd" clip-rule="evenodd" d="M6.23597 40.8186C6.54709 41.0164 6.89354 41.0781 7.20065 41.0781H23.197C23.7945 41.0781 24.4105 40.8472 24.9131 40.565C25.4304 40.2746 25.9429 39.8655 26.32 39.3829L30.7886 33.6625C31.0239 33.3612 31.0669 32.9521 30.8993 32.6085C30.7317 32.2649 30.3828 32.0469 30.0005 32.0469H24.4121C23.8598 32.0469 23.4121 32.4946 23.4121 33.0469C23.4121 33.5992 23.8598 34.0469 24.4121 34.0469H27.9504L24.7439 38.1516C24.7439 38.1516 24.7439 38.1516 24.7439 38.1516C24.5577 38.3899 24.2632 38.6363 23.9341 38.8211C23.5902 39.0141 23.3204 39.0781 23.197 39.0781H7.93989L11.1464 34.9735C11.3326 34.7351 11.6271 34.4887 11.9562 34.3039C12.3 34.1109 12.5699 34.0469 12.6933 34.0469H13.8652C14.4175 34.0469 14.8652 33.5992 14.8652 33.0469C14.8652 32.4946 14.4175 32.0469 13.8652 32.0469H12.6933C12.0958 32.0469 11.4797 32.2778 10.9771 32.56C10.4598 32.8504 9.94735 33.2596 9.57034 33.7422C9.57032 33.7423 9.57035 33.7422 9.57034 33.7422L6.12573 38.1516C5.78156 38.5923 5.45062 39.23 5.59884 39.907C5.6812 40.2832 5.90399 40.6075 6.23597 40.8186ZM7.18078 39.0773C7.18076 39.0773 7.1817 39.0774 7.18367 39.0776L7.18078 39.0773Z" fill="#B20003"/>
<path fill-rule="evenodd" clip-rule="evenodd" d="M20.3454 22.6718C19.5835 25.0098 22.2617 26.9547 24.2492 25.5066L29.5616 21.6361L34.8528 25.4818C36.8427 26.9281 39.5195 24.978 38.7526 22.6404L36.7142 16.4269L42.0258 12.5756C44.0153 11.1331 42.9949 7.9874 40.5374 7.9874H33.954L31.9329 1.7534C31.174 -0.587658 27.8605 -0.583652 27.1072 1.7592C27.1072 1.7592 27.1072 1.75919 27.1072 1.7592L25.1046 7.9874H18.5394C16.0792 7.9874 15.0607 11.1386 17.0552 12.5786L22.3813 16.424L20.3454 22.6718ZM22.247 23.2914C22.247 23.2914 22.247 23.2914 22.247 23.2914L24.5089 16.35C24.6436 15.9368 24.4959 15.4838 24.1435 15.2294L18.2259 10.9571C17.8046 10.6529 18.0198 9.9874 18.5394 9.9874H25.8335C26.2678 9.9874 26.6525 9.70701 26.7855 9.29351L29.0112 2.37142C29.1703 1.87663 29.8701 1.87573 30.0304 2.3702L32.2757 9.2958C32.4094 9.70814 32.7935 9.9874 33.227 9.9874H40.5374C41.0565 9.9874 41.272 10.6518 40.8518 10.9564L34.9496 15.2359C34.5977 15.4911 34.451 15.9443 34.5864 16.3573L36.8523 23.2639C37.0142 23.7575 36.4489 24.1695 36.0286 23.864L30.1488 19.5904C29.798 19.3354 29.3226 19.3357 28.972 19.5911L23.0715 23.8901C22.6517 24.1959 22.0861 23.7853 22.247 23.2914Z" fill="#B20003"/>
<path fill-rule="evenodd" clip-rule="evenodd" d="M35.2576 38.1516C35.2576 38.1516 35.2576 38.1516 35.2576 38.1516L32.0511 34.0469H47.3082C47.4315 34.0469 47.7014 34.1109 48.0452 34.3039C48.3744 34.4888 48.6689 34.7351 48.855 34.9734L52.0615 39.0781H36.8045C36.6811 39.0781 36.4112 39.0141 36.0674 38.8211C35.7383 38.6363 35.4438 38.39 35.2576 38.1516ZM52.8208 39.0773C52.8207 39.0772 52.8198 39.0773 52.8179 39.0776L52.8208 39.0773ZM35.0883 40.565C35.5909 40.8472 36.207 41.0781 36.8045 41.0781H52.8009C53.108 41.0781 53.4544 41.0164 53.7656 40.8186C54.0976 40.6074 54.3204 40.283 54.4027 39.9068C54.5508 39.2298 54.2198 38.5922 53.8757 38.1517L50.4312 33.7423C50.4312 33.7423 50.4312 33.7423 50.4312 33.7423C50.0542 33.2596 49.5416 32.8504 49.0243 32.56C48.5217 32.2778 47.9057 32.0469 47.3082 32.0469H30.001C29.6187 32.0469 29.2698 32.2649 29.1022 32.6085C28.9346 32.9521 28.9776 33.3612 29.2129 33.6625L33.6815 39.3829C34.0585 39.8655 34.571 40.2746 35.0883 40.565Z" fill="#B20003"/>
<path fill-rule="evenodd" clip-rule="evenodd" d="M11.4229 56.4844C11.4229 58.3258 12.9256 59.8281 14.7666 59.8281H45.2352C47.0763 59.8281 48.579 58.3255 48.579 56.4844V41.25C48.579 40.6977 48.1313 40.25 47.579 40.25C47.0267 40.25 46.579 40.6977 46.579 41.25V56.4844C46.579 57.2209 45.9718 57.8281 45.2352 57.8281H14.7666C14.03 57.8281 13.4229 57.2211 13.4229 56.4844V41.25C13.4229 40.6977 12.9751 40.25 12.4229 40.25C11.8706 40.25 11.4229 40.6977 11.4229 41.25V56.4844Z" fill="#B20003"/>
<path fill-rule="evenodd" clip-rule="evenodd" d="M30.001 59.7227C30.5533 59.7227 31.001 59.2749 31.001 58.7227V33.3635C31.001 32.8112 30.5533 32.3635 30.001 32.3635C29.4487 32.3635 29.001 32.8112 29.001 33.3635V58.7227C29.001 59.2749 29.4487 59.7227 30.001 59.7227Z" fill="#B20003"/>
<path fill-rule="evenodd" clip-rule="evenodd" d="M18.1387 33.0469C18.1387 33.5992 18.5864 34.0469 19.1387 34.0469H19.1395C19.6918 34.0469 20.1395 33.5992 20.1395 33.0469C20.1395 32.4946 19.6918 32.0469 19.1395 32.0469H19.1387C18.5864 32.0469 18.1387 32.4946 18.1387 33.0469Z" fill="#B20003"/>
</g>
</svg>
