<svg width="60" height="60" viewBox="0 0 60 60" fill="none" xmlns="http://www.w3.org/2000/svg">
<mask id="mask0_170_1205" style="mask-type:luminance" maskUnits="userSpaceOnUse" x="0" y="0" width="60" height="60">
<path d="M0 3.8147e-06H60V60H0V3.8147e-06Z" fill="white"/>
</mask>
<g mask="url(#mask0_170_1205)">
<path fill-rule="evenodd" clip-rule="evenodd" d="M18.2083 51.8929C18.2083 51.8929 18.2083 51.8929 18.2083 51.8929L30.0478 43.2669L41.8429 51.8399L41.8429 51.8399C45.1659 54.255 49.636 50.9986 48.3553 47.0951L43.8105 33.2417L55.6509 24.6566L55.0965 23.8919L55.6509 24.6565C58.9731 22.2477 57.2692 16.9947 53.1655 16.9947H50.7404C50.1881 16.9947 49.7404 17.4425 49.7404 17.9947C49.7404 18.547 50.1881 18.9947 50.7404 18.9947H53.1655C55.3308 18.9947 56.2298 21.7664 54.4769 23.0374L42.0459 32.0507C41.694 32.3059 41.5472 32.7591 41.6827 33.1721L46.455 47.7185L47.4051 47.4068L46.455 47.7185C47.1306 49.778 44.7722 51.4964 43.0188 50.222L30.635 41.2212C30.2841 40.9662 29.8088 40.9665 29.4582 41.2219L17.0306 50.2764L17.0306 50.2764C15.2795 51.5522 12.9197 49.8387 13.591 47.7786C13.591 47.7786 13.591 47.7786 13.591 47.7786L18.355 33.1589C18.4897 32.7457 18.342 32.2927 17.9896 32.0383L5.52621 23.0401C5.52621 23.0401 5.5262 23.0401 5.5262 23.0401C3.76877 21.7712 4.66638 18.9947 6.83388 18.9947H22.1965C22.6308 18.9947 23.0155 18.7144 23.1485 18.3009L27.8363 3.72179L26.8843 3.41568L27.8363 3.72178C28.5 1.65754 31.4195 1.65395 32.0882 3.71671L36.8172 18.3031C36.9509 18.7155 37.335 18.9947 37.7684 18.9947H40.1935C40.7458 18.9947 41.1935 18.547 41.1935 17.9947C41.1935 17.4425 40.7458 16.9947 40.1935 16.9947H38.4955L33.9907 3.0999C32.7233 -0.809448 27.1902 -0.802734 25.9323 3.10957L21.4676 16.9947H6.83388C2.72576 16.9947 1.02486 22.2569 4.35546 24.6616L4.35548 24.6616L16.2274 33.2328L11.6894 47.159L11.6894 47.159C10.4172 51.0632 14.8894 54.311 18.2083 51.8929Z" fill="#B20003"/>
<path fill-rule="evenodd" clip-rule="evenodd" d="M30 59.8281C30.5523 59.8281 31 59.3804 31 58.8281V49.3504C31 48.7981 30.5523 48.3504 30 48.3504C29.4477 48.3504 29 48.7981 29 49.3504V58.8281C29 59.3804 29.4477 59.8281 30 59.8281Z" fill="#B20003"/>
<path fill-rule="evenodd" clip-rule="evenodd" d="M59.5374 38.3688C59.7081 37.8435 59.4206 37.2794 58.8954 37.1087L49.8816 34.18C49.3563 34.0093 48.7921 34.2968 48.6215 34.822C48.4508 35.3473 48.7383 35.9114 49.2635 36.0821L58.2773 39.0108C58.8026 39.1815 59.3668 38.8941 59.5374 38.3688Z" fill="#B20003"/>
<path fill-rule="evenodd" clip-rule="evenodd" d="M41.508 12.9315C41.9548 13.2561 42.5802 13.1571 42.9048 12.7103L48.4757 5.04257C48.8003 4.59577 48.7012 3.9704 48.2544 3.64577C47.8076 3.32115 47.1822 3.4202 46.8576 3.86701L41.2868 11.5347C40.9621 11.9815 41.0612 12.6069 41.508 12.9315Z" fill="#B20003"/>
<path fill-rule="evenodd" clip-rule="evenodd" d="M18.4907 12.9315C18.9376 12.6069 19.0366 11.9815 18.712 11.5347L13.1411 3.86701C12.8165 3.4202 12.1911 3.32115 11.7443 3.64577C11.2975 3.9704 11.1985 4.59577 11.5231 5.04257L17.0939 12.7103C17.4186 13.1571 18.0439 13.2561 18.4907 12.9315Z" fill="#B20003"/>
<path fill-rule="evenodd" clip-rule="evenodd" d="M0.463275 38.3683C0.63394 38.8936 1.19809 39.181 1.72335 39.0104L10.7372 36.0816C11.2624 35.9109 11.5499 35.3468 11.3792 34.8215C11.2086 34.2963 10.6444 34.0088 10.1191 34.1795L1.10532 37.1082C0.580063 37.2789 0.292611 37.8431 0.463275 38.3683Z" fill="#B20003"/>
</g>
</svg>
