<svg width="60" height="60" viewBox="0 0 60 60" fill="none" xmlns="http://www.w3.org/2000/svg">
<mask id="mask0_211_9008" style="mask-type:luminance" maskUnits="userSpaceOnUse" x="0" y="15" width="49" height="46">
<path d="M48.8834 15.2549H0V60.0006H48.8834V15.2549Z" fill="white"/>
<path d="M24.4421 45.4933C24.9691 45.4933 25.3968 45.8849 25.3968 46.3673C25.3968 46.8497 24.9691 47.2412 24.4421 47.2412C23.915 47.2412 23.4873 46.8497 23.4873 46.3673C23.4873 45.8849 23.915 45.4933 24.4421 45.4933Z" fill="white"/>
</mask>
<g mask="url(#mask0_211_9008)">
<mask id="mask1_211_9008" style="mask-type:luminance" maskUnits="userSpaceOnUse" x="0" y="15" width="49" height="46">
<path d="M0 15.2547H48.8834V60.0005H0V15.2547Z" fill="white"/>
</mask>
<g mask="url(#mask1_211_9008)">
<path d="M15.75 36.0005C16.164 36.0005 16.5 36.3365 16.5 36.7505C16.5 37.1645 16.164 37.5005 15.75 37.5005C15.336 37.5005 15 37.1645 15 36.7505C15 36.3365 15.336 36.0005 15.75 36.0005Z" fill="#B20003"/>
<path fill-rule="evenodd" clip-rule="evenodd" d="M21.75 25.5005C22.1642 25.5005 22.5 25.0065 22.5 24.397V20.6039C22.5 19.9945 22.1642 19.5005 21.75 19.5005C21.3358 19.5005 21 19.9945 21 20.6039V24.397C21 25.0065 21.3358 25.5005 21.75 25.5005Z" fill="#B20003"/>
<path fill-rule="evenodd" clip-rule="evenodd" d="M21.75 54.0005C22.1642 54.0005 22.5 53.5065 22.5 52.897V49.1039C22.5 48.4945 22.1642 48.0005 21.75 48.0005C21.3358 48.0005 21 48.4945 21 49.1039V52.897C21 53.5065 21.3358 54.0005 21.75 54.0005Z" fill="#B20003"/>
<path fill-rule="evenodd" clip-rule="evenodd" d="M32.2086 29.6442C32.5154 30.1306 33.1949 30.2972 33.7262 30.0164L35.3799 29.1425C35.9113 28.8616 36.0933 28.2397 35.7865 27.7533C35.4797 27.2669 34.8002 27.1002 34.2689 27.3811L32.6152 28.255C32.0839 28.5358 31.9018 29.1578 32.2086 29.6442Z" fill="#B20003"/>
<path fill-rule="evenodd" clip-rule="evenodd" d="M7.09728 44.5011C7.40408 44.9875 8.08355 45.1542 8.61492 44.8733L10.2686 43.9994C10.7999 43.7186 10.982 43.0966 10.6752 42.6102C10.3684 42.1238 9.68892 41.9572 9.15754 42.238L7.50391 43.1119C6.97254 43.3928 6.79048 44.0147 7.09728 44.5011Z" fill="#B20003"/>
<path fill-rule="evenodd" clip-rule="evenodd" d="M28.5244 26.3987C29.0558 26.6796 29.7353 26.5129 30.0421 26.0265L30.9968 24.5129C31.3036 24.0265 31.1216 23.4045 30.5902 23.1237C30.0588 22.8428 29.3793 23.0095 29.0725 23.4959L28.1178 25.0096C27.811 25.4959 27.993 26.1179 28.5244 26.3987Z" fill="#B20003"/>
<path fill-rule="evenodd" clip-rule="evenodd" d="M12.293 50.6312C12.8243 50.912 13.5038 50.7453 13.8106 50.2589L14.7654 48.7453C15.0722 48.2589 14.8901 47.6369 14.3587 47.3561C13.8274 47.0753 13.1479 47.2419 12.8411 47.7283L11.8863 49.242C11.5795 49.7284 11.7616 50.3503 12.293 50.6312Z" fill="#B20003"/>
<path fill-rule="evenodd" clip-rule="evenodd" d="M10.6752 29.6442C10.982 29.1578 10.7999 28.5358 10.2686 28.255L8.61492 27.3811C8.08355 27.1002 7.40408 27.2669 7.09728 27.7533C6.79048 28.2397 6.97254 28.8616 7.50391 29.1425L9.15754 30.0164C9.68892 30.2972 10.3684 30.1306 10.6752 29.6442Z" fill="#B20003"/>
<path fill-rule="evenodd" clip-rule="evenodd" d="M37.2865 44.5011C37.5933 44.0147 37.4113 43.3928 36.8799 43.1119L35.2262 42.238C34.6949 41.9572 34.0154 42.1238 33.7086 42.6102C33.4018 43.0966 33.5839 43.7186 34.1152 43.9994L35.7689 44.8733C36.3002 45.1542 36.9797 44.9875 37.2865 44.5011Z" fill="#B20003"/>
<path fill-rule="evenodd" clip-rule="evenodd" d="M14.3587 26.3987C14.8901 26.1179 15.0722 25.4959 14.7654 25.0096L13.8106 23.4959C13.5038 23.0095 12.8243 22.8428 12.293 23.1237C11.7616 23.4045 11.5795 24.0265 11.8863 24.5129L12.8411 26.0265C13.1479 26.5129 13.8274 26.6796 14.3587 26.3987Z" fill="#B20003"/>
<path fill-rule="evenodd" clip-rule="evenodd" d="M30.5902 50.6312C31.1216 50.3503 31.3036 49.7284 30.9968 49.242L30.0421 47.7283C29.7353 47.2419 29.0558 47.0753 28.5244 47.3561C27.993 47.6369 27.811 48.2589 28.1178 48.7453L29.0725 50.2589C29.3793 50.7453 30.0588 50.912 30.5902 50.6312Z" fill="#B20003"/>
<path fill-rule="evenodd" clip-rule="evenodd" d="M31.5 36.7505C31.5 37.1647 31.994 37.5005 32.6034 37.5005H36.3966C37.006 37.5005 37.5 37.1647 37.5 36.7505C37.5 36.3363 37.006 36.0005 36.3966 36.0005H32.6034C31.994 36.0005 31.5 36.3363 31.5 36.7505Z" fill="#B20003"/>
<path fill-rule="evenodd" clip-rule="evenodd" d="M4.5 36.7505C4.5 37.1647 4.99403 37.5005 5.60345 37.5005H9.39655C10.006 37.5005 10.5 37.1647 10.5 36.7505C10.5 36.3363 10.006 36.0005 9.39655 36.0005H5.60345C4.99403 36.0005 4.5 36.3363 4.5 36.7505Z" fill="#B20003"/>
<path fill-rule="evenodd" clip-rule="evenodd" d="M21.75 37.5005C22.1642 37.5005 22.5 37.1654 22.5 36.752V32.249C22.5 31.8356 22.1642 31.5005 21.75 31.5005C21.3358 31.5005 21 31.8356 21 32.249V36.752C21 37.1654 21.3358 37.5005 21.75 37.5005Z" fill="#B20003"/>
<path fill-rule="evenodd" clip-rule="evenodd" d="M21 36.7505C21 37.1647 21.4266 37.5005 21.9529 37.5005H26.0471C26.5734 37.5005 27 37.1647 27 36.7505C27 36.3363 26.5734 36.0005 26.0471 36.0005H21.9529C21.4266 36.0005 21 36.3363 21 36.7505Z" fill="#B20003"/>
</g>
</g>
<path fill-rule="evenodd" clip-rule="evenodd" d="M45.7414 17.6148L49.5176 15.1651L53.2777 17.5984C54.9944 18.7094 57.4446 17.243 56.7364 15.3209L55.2981 11.4173L59.0529 8.99314C60.8657 7.82282 59.8829 5.3259 57.7367 5.3259H53.0611L51.6298 1.39508C50.9517 -0.467254 48.0156 -0.464351 47.3424 1.39974L45.9246 5.3259H41.2633C39.1147 5.3259 38.1335 7.82728 39.9508 8.99552L43.7162 11.4161L42.2792 15.3424C41.5757 17.2647 44.0267 18.7272 45.7414 17.6148ZM44.3762 15.9716L46.0701 11.3433C46.2228 10.9261 46.0568 10.4676 45.661 10.2131L41.2296 7.36447C41.2236 7.36063 41.2193 7.3574 41.2163 7.35496C41.2167 7.3529 41.2174 7.35035 41.2185 7.34731C41.2225 7.3363 41.2294 7.32975 41.2294 7.32975C41.2294 7.32975 41.241 7.32622 41.2633 7.32622H46.7255C47.2033 7.32622 47.6269 7.04809 47.7754 6.63691L49.4422 2.02145C49.4449 2.01395 49.4472 2.00937 49.4487 2.00696C49.4533 2.00492 49.4661 2.00034 49.4869 2.00032C49.5077 2.0003 49.5206 2.00488 49.5252 2.0069C49.5266 2.0093 49.529 2.01389 49.5318 2.02143L51.2132 6.63923C51.3625 7.04923 51.7854 7.32622 52.2622 7.32622H57.7367C57.7589 7.32622 57.77 7.32957 57.77 7.32957C57.77 7.32957 57.7775 7.33627 57.7815 7.34731C57.7826 7.35033 57.7833 7.35288 57.7837 7.35492C57.7807 7.35736 57.7764 7.36057 57.7705 7.36441L53.3505 10.2179C52.9553 10.473 52.7904 10.9319 52.944 11.3488L54.6408 15.9539C54.6417 15.9565 54.643 15.9606 54.643 15.9606C54.6402 15.9634 54.6359 15.967 54.6298 15.971C54.6122 15.9824 54.5971 15.9847 54.5925 15.9849L54.5887 15.9844C54.5887 15.9844 54.5785 15.9816 54.5622 15.971L50.1591 13.1215C49.7746 12.8727 49.2578 12.8729 48.8735 13.1222L44.4548 15.9887C44.4385 15.9993 44.4284 16.0021 44.4284 16.0021L44.4246 16.0026C44.42 16.0024 44.4049 16.0001 44.3873 15.9887C44.3811 15.9848 44.3768 15.9811 44.374 15.9783C44.374 15.9783 44.3753 15.9742 44.3762 15.9716Z" fill="#B20003"/>
<path fill-rule="evenodd" clip-rule="evenodd" d="M21.75 51.9706C30.1561 51.9706 36.9706 45.1561 36.9706 36.75C36.9706 28.3439 30.1561 21.5294 21.75 21.5294C13.3439 21.5294 6.52941 28.3439 6.52941 36.75C6.52941 45.1561 13.3439 51.9706 21.75 51.9706ZM21.75 54C31.2769 54 39 46.2769 39 36.75C39 27.2231 31.2769 19.5 21.75 19.5C12.2231 19.5 4.5 27.2231 4.5 36.75C4.5 46.2769 12.2231 54 21.75 54Z" fill="#B20003"/>
<path fill-rule="evenodd" clip-rule="evenodd" d="M21.75 56.5227C32.6702 56.5227 41.5227 47.6702 41.5227 36.75C41.5227 25.8298 32.6702 16.9773 21.75 16.9773C10.8298 16.9773 1.97727 25.8298 1.97727 36.75C1.97727 43.9454 5.82074 50.2432 11.5667 53.7022C12.9357 54.5264 14.4127 55.1894 15.9715 55.665C17.7994 56.2227 19.7396 56.5227 21.75 56.5227ZM21.75 58.5C33.7622 58.5 43.5 48.7622 43.5 36.75C43.5 24.7378 33.7622 15 21.75 15C9.73781 15 0 24.7378 0 36.75C0 44.5948 4.15316 51.4696 10.3807 55.2955C11.8909 56.2233 13.5231 56.9718 15.2476 57.5114C17.3008 58.1538 19.485 58.5 21.75 58.5Z" fill="#B20003"/>
</svg>
