<svg width="106" height="32" viewBox="0 0 106 32" fill="none" xmlns="http://www.w3.org/2000/svg">
<g clip-path="url(#clip0_170_1677)">
<path d="M101.063 27.494C103.142 27.494 104.615 27.1138 105.713 26.2949V22.5808C104.586 23.3704 103.229 23.8676 101.323 23.8676C98.1166 23.8676 96.788 21.3525 96.788 17.3751C96.788 13.1931 98.4054 11.0582 101.351 11.0582C103.084 11.0582 104.789 11.6723 105.684 12.2572V8.39684C104.731 7.87042 103.084 7.49023 100.832 7.49023C95.0839 7.49023 92.1089 11.6723 92.1089 17.5214C92.1378 23.9261 95.055 27.494 101.063 27.494ZM72.9596 25.7978V22.0836C71.5732 23.0487 69.2049 23.8968 67.0386 23.8968C63.746 23.8968 62.504 22.3176 62.3019 19.1006H73.1618V16.7025C73.1618 10.0053 70.2446 7.49023 65.7678 7.49023C60.2801 7.49023 57.6806 11.7308 57.6806 17.5506C57.6806 24.2478 60.9444 27.494 66.6632 27.494C69.5226 27.494 71.631 26.7044 72.9596 25.7978ZM31.7438 7.84118V15.445H25.7362V7.84118H21.2305V27.1138H25.7362V19.0714H31.7438V27.1138H36.2495V7.84118H31.7438ZM56.5542 23.4874H54.5613V7.84118H41.4485V9.47891C41.4485 14.1874 41.1596 20.2704 39.5711 23.4874H38.1269V31.5006H42.2861V27.1138H52.3662V31.5006H56.5253V23.4874H56.5542ZM87.3144 27.1138H92.4267L85.2059 16.7317L91.5602 7.84118H87.0256L80.6713 16.7317V7.84118H76.1656V27.1138H80.6713V17.6383L87.3144 27.1138ZM65.6523 11.0582C67.8762 11.0582 68.5694 12.9299 68.5694 15.3572V15.7374H62.3019C62.4174 12.6666 63.5149 11.0582 65.6523 11.0582ZM50.0555 23.4874H43.7013C44.9433 20.5921 45.2899 15.328 45.2899 11.994V11.4091H50.0555V23.4874Z" fill="#212121"/>
<path d="M17.4741 27.1132H12.8817V4.09717H10.8311C7.07629 4.09717 5.11226 5.99811 5.11226 8.83491C5.11226 12.0519 6.46975 13.5434 9.27139 15.4443L11.582 17.0236L4.93896 27.1132H0L5.97875 18.1057C2.54169 15.6198 0.606539 13.1925 0.606539 9.09811C0.606539 3.98019 4.13025 0.5 10.8022 0.5H17.4452V27.1132H17.4741Z" fill="#FC3F1D"/>
</g>
<defs>
<clipPath id="clip0_170_1677">
<rect width="106" height="31" fill="white" transform="translate(0 0.5)"/>
</clipPath>
</defs>
</svg>
