<svg width="106" height="32" viewBox="0 0 106 32" fill="none" xmlns="http://www.w3.org/2000/svg">
<g clip-path="url(#clip0_170_1683)">
<mask id="mask0_170_1683" style="mask-type:alpha" maskUnits="userSpaceOnUse" x="0" y="0" width="30" height="32">
<path d="M21.9807 31.4857C22.6269 31.4713 23.2775 31.4282 23.9145 31.3086C24.5606 31.1841 25.166 30.9926 25.7534 30.6719C26.3362 30.3655 26.8648 29.9587 27.3212 29.48C27.7775 29.0013 28.166 28.446 28.4553 27.838C28.7534 27.2204 28.9432 26.5935 29.0607 25.9137C29.1781 25.2436 29.2143 24.5637 29.2279 23.8841C29.2369 23.5729 29.2369 23.2617 29.2414 22.9506V9.04463C29.2414 8.73348 29.2414 8.42233 29.2279 8.11118C29.2143 7.43622 29.1736 6.75171 29.0607 6.08154C28.9432 5.4018 28.7534 4.76991 28.4553 4.1572C28.1615 3.55404 27.7775 2.99877 27.3212 2.51528C26.8648 2.03659 26.3317 1.62971 25.7534 1.32335C25.1615 1.0122 24.5606 0.811148 23.9145 0.68669C23.2775 0.567017 22.6269 0.523935 21.9807 0.509574C21.8588 0.509574 21.7367 0.504787 21.538 0.5H8.51669L7.26969 0.514361C6.62359 0.528722 5.97298 0.571804 5.33592 0.691477C4.68983 0.815935 4.0844 1.0122 3.49704 1.32814C2.9142 1.6345 2.38557 2.04138 1.92925 2.52008C1.47291 2.99877 1.08435 3.55404 0.795192 4.16198C0.492477 4.7795 0.307233 5.40658 0.189762 6.08632C0.067772 6.75648 0.031627 7.43622 0.0135544 8.11596C0.00451813 8.42711 0.00451813 8.73826 0 9.04941V22.9554C0 23.2665 0.00451813 23.5777 0.0135544 23.8889C0.0271088 24.5637 0.067772 25.2483 0.180725 25.9184C0.298198 26.5983 0.487958 27.2301 0.786156 27.8428C1.07983 28.446 1.46387 29.0013 1.92021 29.4847C2.37654 29.9634 2.90968 30.3703 3.488 30.6767C4.07988 30.9879 4.68079 31.1888 5.32688 31.3134C5.96394 31.433 6.61455 31.4761 7.26065 31.4904C7.38263 31.4904 7.50463 31.4952 7.70342 31.5H20.0334L21.9717 31.4904L21.9807 31.4857Z" fill="#299400"/>
</mask>
<g mask="url(#mask0_170_1683)">
<path d="M0 0.5H29.2414V31.5H0V0.5Z" fill="#19AA1E"/>
<path fill-rule="evenodd" clip-rule="evenodd" d="M0 0.5H29.2414V10.6719L0 5.82812V0.5Z" fill="#FFB919"/>
<path fill-rule="evenodd" clip-rule="evenodd" d="M0 28.1094L29.2414 23.2656V31.5H0V28.1094Z" fill="#82D714"/>
<path fill-rule="evenodd" clip-rule="evenodd" d="M0 5.21484L10.2069 6.90557C11.4775 6.05294 12.9891 5.58546 14.6207 5.58546C16.8804 5.58546 18.9102 6.48227 20.3881 8.0571C20.5746 8.25583 20.7505 8.4636 20.9154 8.67942L29.2414 10.0586V11.2842L21.7608 10.0451C22.3165 11.1757 22.6164 12.4354 22.6164 13.721C22.6164 15.3818 22.266 17.0378 21.5416 18.7004L21.5196 18.7508L21.2119 19.4496H20.4844C18.9823 19.4496 17.9859 19.9259 17.3344 20.7702C16.8229 21.4331 16.5271 22.3266 16.4276 23.3016L16.4245 23.3321L16.41 23.4878L16.4038 23.5556L16.392 23.6882C16.3539 24.1235 16.3284 24.4926 16.3155 24.7934L29.2414 22.6524V23.8779L0 28.7217V27.4961L12.9404 25.3525L12.9348 25.0774L12.9331 24.9997L12.932 24.9599L12.9299 24.8986C12.9184 24.565 12.8895 24.1373 12.8433 23.6189L12.8344 23.5206L12.8186 23.3504C12.7257 22.3703 12.4343 21.4653 11.9242 20.7926C11.2795 19.9427 10.2923 19.4594 8.80222 19.4497L8.7569 19.4496H8.02946L7.72183 18.7508C6.98254 17.0712 6.625 15.3986 6.625 13.721C6.625 11.6113 7.43234 9.57127 8.85332 8.0571C8.89434 8.01339 8.93578 7.9702 8.97764 7.92754L0 6.44044V5.21484Z" fill="#212121"/>
<path fill-rule="evenodd" clip-rule="evenodd" d="M14.6191 6.79688C18.7014 6.79688 21.4725 10.128 21.4725 13.7215C21.4725 15.1642 21.1756 16.6653 20.4828 18.2391C16.4658 18.2391 15.4743 21.289 15.2868 23.2079L15.2748 23.3358C15.2112 24.0206 15.1745 24.5701 15.1644 24.9843L14.0764 25.1646L14.0762 25.1273C14.072 24.693 14.0333 24.0839 13.96 23.2999L13.9569 23.2656C13.7836 21.3509 12.8129 18.2391 8.75529 18.2391C8.06252 16.6653 7.76562 15.1642 7.76562 13.7215C7.76562 10.128 10.5367 6.79688 14.6191 6.79688Z" fill="#212121"/>
</g>
<path fill-rule="evenodd" clip-rule="evenodd" d="M42.9272 5.66602C38.2217 5.66602 34.6926 8.64076 34.7228 13.8074H39.0965C39.0362 11.7408 40.303 9.73673 42.9272 9.73673C44.918 9.73673 46.1849 11.1145 46.1849 12.868C46.1849 14.6842 44.7974 15.6862 42.5653 16.8135C39.6394 18.2852 37.8899 18.9741 34.7228 20.07V26.0196H50.4077V21.9489H40.6348C42.1467 21.2945 43.6183 20.5761 44.9481 19.9135C48.4773 18.1599 50.5585 16.1873 50.5585 12.6488C50.5585 8.39026 47.4818 5.66602 42.9272 5.66602ZM57.3452 10.0499H66.3942V5.97914H53.1224V26.0196H57.3452V10.0499ZM72.7285 5.97914H68.5055V26.0196H72.6983L80.5709 13.2125V26.0196H84.7937V5.97914H80.5709L72.7285 18.7862V5.97914ZM105.998 18.5044H101.625C100.961 20.7276 98.9403 22.262 96.5574 22.262C93.0886 22.262 90.8263 19.162 90.8263 15.9993C90.8263 12.8367 93.0283 9.73673 96.678 9.73673C99.091 9.73673 100.961 11.2711 101.625 13.4943H105.998C105.365 9.01652 101.957 5.66602 96.5574 5.66602C90.5851 5.66602 86.6035 10.0185 86.6035 15.9993C86.6035 21.9802 90.5851 26.3327 96.5574 26.3327C101.957 26.3327 105.365 23.0447 105.998 18.5044Z" fill="#212121"/>
</g>
<defs>
<clipPath id="clip0_170_1683">
<rect width="106" height="31" fill="white" transform="translate(0 0.5)"/>
</clipPath>
</defs>
</svg>
