<svg width="30" height="30" viewBox="0 0 30 30" fill="none" xmlns="http://www.w3.org/2000/svg">
<path fill-rule="evenodd" clip-rule="evenodd" d="M16.7678 15.0003L23.3841 8.38406C23.8728 7.89531 23.8728 7.10531 23.3841 6.61656C22.8953 6.12781 22.1053 6.12781 21.6166 6.61656L15.0003 13.2328L8.38406 6.61656C7.89531 6.12781 7.10531 6.12781 6.61656 6.61656C6.12781 7.10531 6.12781 7.89531 6.61656 8.38406L13.2328 15.0003L6.61656 21.6166C6.12781 22.1053 6.12781 22.8953 6.61656 23.3841C6.86031 23.6278 7.18031 23.7503 7.50031 23.7503C7.82031 23.7503 8.14031 23.6278 8.38406 23.3841L15.0003 16.7678L21.6166 23.3841C21.8603 23.6278 22.1803 23.7503 22.5003 23.7503C22.8203 23.7503 23.1403 23.6278 23.3841 23.3841C23.8728 22.8953 23.8728 22.1053 23.3841 21.6166L16.7678 15.0003Z" fill="white"/>
</svg>
