<svg width="25" height="24" viewBox="0 0 25 24" fill="none" xmlns="http://www.w3.org/2000/svg">
<path fill-rule="evenodd" clip-rule="evenodd" d="M8.79289 5.29289L10.7929 3.29289C11.1834 2.90237 11.8166 2.90237 12.2071 3.29289C12.5676 3.65338 12.5953 4.22061 12.2903 4.6129L12.2071 4.70711L11.8892 5.02302C12.0916 5.00771 12.2953 5 12.5 5C16.9183 5 20.5 8.58172 20.5 13C20.5 17.4183 16.9183 21 12.5 21C8.08172 21 4.5 17.4183 4.5 13C4.5 12.4477 4.94772 12 5.5 12C6.05228 12 6.5 12.4477 6.5 13C6.5 16.3137 9.18629 19 12.5 19C15.8137 19 18.5 16.3137 18.5 13C18.5 9.68629 15.8137 7 12.5 7C12.3129 7 12.1271 7.00853 11.9429 7.02545L12.2071 7.29289C12.5976 7.68342 12.5976 8.31658 12.2071 8.70711C11.8466 9.06759 11.2794 9.09532 10.8871 8.7903L10.7929 8.70711L8.79289 6.70711C8.43241 6.34662 8.40468 5.77939 8.7097 5.3871L8.79289 5.29289L10.7929 3.29289L8.79289 5.29289Z" fill="white"/>
</svg>
