<svg width="36" height="36" viewBox="0 0 36 36" fill="none" xmlns="http://www.w3.org/2000/svg">
<path fill-rule="evenodd" clip-rule="evenodd" d="M16.5 3C23.9558 3 30 9.04416 30 16.5C30 19.6872 28.8955 22.6164 27.0485 24.9258L32.5607 30.4393C33.1464 31.0251 33.1464 31.9749 32.5607 32.5607C32.0199 33.1014 31.1691 33.143 30.5807 32.6854L30.4393 32.5607L24.9258 27.0485C22.6164 28.8955 19.6872 30 16.5 30C9.04416 30 3 23.9558 3 16.5C3 9.04416 9.04416 3 16.5 3ZM16.5 6C10.701 6 6 10.701 6 16.5C6 22.299 10.701 27 16.5 27C22.299 27 27 22.299 27 16.5C27 10.701 22.299 6 16.5 6Z" fill="white"/>
<path d="M17.75 10.25C17.75 9.55964 17.1904 9 16.5 9C15.8096 9 15.25 9.55964 15.25 10.25V15.25H10.25C9.55964 15.25 9 15.8096 9 16.5C9 17.1904 9.55964 17.75 10.25 17.75H15.25V22.75C15.25 23.4404 15.8096 24 16.5 24C17.1904 24 17.75 23.4404 17.75 22.75V17.75H22.75C23.4404 17.75 24 17.1904 24 16.5C24 15.8096 23.4404 15.25 22.75 15.25H17.75V10.25Z" fill="white"/>
</svg>
